<svg width="1920" height="1080" viewBox="0 0 1920 1080" fill="none" xmlns="http://www.w3.org/2000/svg">
<g clip-path="url(#clip0_9_86)">
<rect width="1920" height="1080" fill="#F5F9FA"/>
<path d="M845.869 795.629C875.935 798.199 949.548 820.314 987.299 857.855M987.299 857.855C991.344 861.877 995.084 866.163 998.444 870.727L987.299 857.855ZM987.299 857.855C998.722 849.573 1024.57 836.145 1036.56 848.698C1051.56 864.388 1058.55 879.829 1057.96 900.385C1057.36 920.941 1057.27 933.901 1053.96 942.899C1050.65 951.896 1038.86 955.607 1033.17 953.129C1030.01 951.752 1018.88 947.186 1013.83 932.84M1020.54 876.266C1009.63 903.632 1009.79 921.364 1013.83 932.84M1013.83 932.84C1008.33 957.431 987.267 1009 947.015 1018.57C896.7 1030.52 870.815 1021.92 847.074 1011.76C827.698 1003.47 786.157 983.509 773.248 941.319C760.34 899.129 780.428 845.558 788.851 832.93M855.375 796.859C849.21 784.167 835.523 747.413 808.496 748.011C786.803 748.49 778.873 768.094 765.251 783.495C747.975 803.026 744.997 812.111 743.669 821.604C742.341 831.098 756.045 841.198 762.229 841.695C765.665 841.971 777.628 843.194 788.852 832.927C797.829 824.715 806.333 809.153 809.621 779.877M826.024 853.824C829.505 865.109 842.506 883.718 866.667 867.874M934.101 893.899C937.581 905.184 950.979 924.45 973.584 912.57M882.934 935.82L886.148 934.787C893.395 932.456 905.54 930.419 902.902 923.278V923.278C901.997 920.829 900.093 920.022 897.627 919.153C893.37 917.653 886.41 921.952 886.41 921.952C886.41 921.952 882.225 914.473 877.678 912.042C876.127 911.214 873.991 911.618 872.614 912.035C871.689 912.316 871.292 912.37 870.716 913.146V913.146C867.526 917.444 871.562 923.28 875.157 927.245L882.934 935.82ZM882.934 935.82L871.028 969.333M871.028 969.333C866.383 968.754 854.952 963.83 846.389 948.769M871.028 969.333C875.672 970.848 886.199 972.013 891.154 964.552" stroke="#ECF0F1" stroke-width="3" stroke-linecap="round" stroke-linejoin="round"/>
<path d="M353.831 476.338C381.217 463.668 456.113 446.387 507.509 460.28M507.509 460.28C513.015 461.769 518.387 463.638 523.568 465.936L507.509 460.28ZM507.509 460.28C513.324 447.425 529.116 422.952 545.756 427.908C566.556 434.104 580.285 444.046 589.957 462.195C599.628 480.344 605.97 491.647 607.558 501.1C609.146 510.554 600.74 519.624 594.571 520.29C591.144 520.661 579.219 522.21 567.719 512.255M545.504 459.794C549.593 488.969 558.52 504.292 567.719 512.255M567.719 512.255C575.131 536.338 582.399 591.57 552.18 619.827C514.405 655.148 487.662 660.511 462.007 663.456C441.07 665.86 395.096 669.111 362.972 638.867C330.849 608.623 321.742 552.139 322.799 536.996M362.697 472.694C351.051 464.728 320.946 439.591 297.769 453.506C279.166 464.674 281.996 485.631 277.799 505.759C272.476 531.285 274.392 540.652 277.944 549.555C281.496 558.458 298.404 560.438 304.022 557.805C307.143 556.341 318.139 551.473 322.798 536.993C326.524 525.412 326.197 507.681 314.542 480.624M365.441 536.717C374.057 544.793 394.573 554.511 407.703 528.775M479.171 517.954C487.787 526.03 508.972 536.122 522.717 514.599M455.51 579.724L457.789 577.234C462.928 571.617 472.467 563.828 466.636 558.934V558.934C464.636 557.255 462.583 557.498 460.01 557.966C455.569 558.773 451.655 565.957 451.655 565.957C451.655 565.957 444.314 561.535 439.159 561.678C437.402 561.727 435.747 563.137 434.758 564.182C434.093 564.884 433.776 565.128 433.66 566.088V566.088C433.02 571.402 439.418 574.47 444.506 576.132L455.51 579.724ZM455.51 579.724L461.781 614.732M461.781 614.732C457.46 616.531 445.091 617.921 430.189 609.084M461.781 614.732C466.566 613.746 476.286 609.54 476.891 600.604" stroke="#ECF0F1" stroke-width="3" stroke-linecap="round" stroke-linejoin="round"/>
<path d="M532.033 47.0737C554.555 26.9908 621.194 -11.313 674.409 -12.9583M674.409 -12.9583C680.11 -13.1345 685.794 -12.9078 691.419 -12.2143L674.409 -12.9583ZM674.409 -12.9583C676.237 -26.9491 684.234 -54.9549 701.596 -55.0493C723.299 -55.1674 739.325 -49.6443 753.854 -35.0902C768.383 -20.5362 777.736 -11.5645 782.003 -2.98069C786.27 5.60316 780.864 16.7247 775.155 19.1555C771.984 20.5061 761.023 25.4547 747.126 19.2719M710.622 -24.4668C723.015 2.25979 736.01 14.3264 747.126 19.2719M747.126 19.2719C761.218 40.1614 784.227 90.8959 763.525 126.717C737.648 171.492 713.618 184.396 689.927 194.671C670.592 203.057 627.548 219.53 588.02 199.929C548.493 180.327 523.362 128.929 519.971 114.133M539.457 41.0102C525.999 36.7725 489.887 21.471 471.755 41.5219C457.202 57.615 466.001 76.8453 467.835 97.3238C470.161 123.295 474.717 131.7 480.703 139.187C486.69 146.674 503.444 143.653 508.053 139.5C510.615 137.193 519.721 129.339 519.97 114.131C520.169 101.966 514.702 85.0954 495.686 62.5948M560.691 101.472C571.283 106.695 593.738 110.03 598.821 81.5884M664.058 50.4619C674.649 55.6849 697.853 59.1838 704.749 34.5947M659.372 116.443L660.829 113.397C664.114 106.53 670.977 96.3047 663.975 93.3163V93.3163C661.574 92.2913 659.679 93.1209 657.354 94.3159C653.339 96.3787 651.682 104.39 651.682 104.39C651.682 104.39 643.373 102.293 638.482 103.928C636.815 104.486 635.642 106.316 634.999 107.603C634.567 108.468 634.334 108.793 634.502 109.746V109.746C635.434 115.017 642.448 116.093 647.799 116.204L659.372 116.443ZM659.372 116.443L675.548 148.117M675.548 148.117C671.936 151.094 660.505 156.018 643.678 151.895M675.548 148.117C679.84 145.782 687.918 138.933 685.899 130.206" stroke="#ECF0F1" stroke-width="3" stroke-linecap="round" stroke-linejoin="round"/>
<path d="M151.23 88.1609C175.049 106.686 224.756 165.314 235.982 217.357M235.982 217.357C237.185 222.932 237.988 228.564 238.322 234.222L235.982 217.357ZM235.982 217.357C250.073 216.629 279.063 219.437 282.291 236.497C286.325 257.822 283.787 274.582 272.095 291.5C260.404 308.418 253.268 319.238 245.596 324.984C237.924 330.731 226.009 327.422 222.587 322.246C220.686 319.37 213.84 309.484 217.412 294.698M253.841 250.897C229.791 267.912 220.269 282.872 217.412 294.698M217.412 294.698C199.41 312.331 153.664 344.122 114.694 330.228C65.9817 312.86 48.9511 291.555 34.5672 270.109C22.8283 252.606 -1.14631 213.244 10.9961 170.827C23.1384 128.41 69.1546 94.4115 83.0951 88.405M158.534 94.3677C160.272 80.3654 168.802 42.0844 145.807 27.8707C127.351 16.4625 110.025 28.5888 90.2143 34.0903C65.0898 41.0675 57.6455 47.0663 51.3628 54.3062C45.0802 61.5462 51.076 77.479 55.9927 81.2633C58.7244 83.3659 68.0936 90.9043 83.0973 88.4032C95.0982 86.4027 110.704 77.9791 129.401 55.2131M102.901 126.17C99.6758 137.531 100.449 160.218 129.342 160.083M171.736 218.627C168.511 229.988 169.259 253.442 194.689 255.784M105.993 225.932L109.252 226.815C116.6 228.806 127.896 233.71 129.571 226.284V226.284C130.145 223.736 128.987 222.023 127.392 219.951C124.638 216.375 116.46 216.192 116.46 216.192C116.46 216.192 117.021 207.641 114.53 203.126C113.681 201.586 111.669 200.763 110.287 200.363C109.358 200.094 108.996 199.924 108.09 200.261V200.261C103.074 202.13 103.282 209.222 104.139 214.506L105.993 225.932ZM105.993 225.932L77.7607 247.561M77.7607 247.561C74.1799 244.546 67.2727 234.192 68.2901 216.897M77.7607 247.561C80.8313 251.36 89.0272 258.069 97.2456 254.508" stroke="#ECF0F1" stroke-width="3" stroke-linecap="round" stroke-linejoin="round"/>
<path d="M1294.86 -70.1607C1324.86 -73.4479 1401.36 -65.9729 1445.65 -36.433M1445.65 -36.433C1450.4 -33.2683 1454.89 -29.7854 1459.07 -25.9564L1445.65 -36.433ZM1445.65 -36.433C1455.26 -46.7665 1478.02 -64.9343 1492.22 -54.9361C1509.96 -42.4383 1519.81 -28.6404 1523.2 -8.35656C1526.58 11.9273 1528.99 24.6618 1527.49 34.1286C1525.98 43.5954 1515.13 49.5156 1509.07 48.1827C1505.7 47.4422 1493.9 45.1124 1486.17 32.0125M1481.82 -24.7913C1476.41 4.16628 1479.99 21.5344 1486.17 32.0125M1486.17 32.0125C1485.53 57.2027 1474.82 111.873 1437.18 129.033C1390.12 150.483 1363.06 147.047 1337.81 141.668C1317.19 137.278 1272.58 125.716 1251.76 86.8147C1230.94 47.9138 1240.3 -8.52886 1246.13 -22.5464M1304.43 -70.7911C1295.93 -82.052 1275.4 -115.469 1248.99 -109.661C1227.8 -105 1223.81 -84.2324 1213.42 -66.4902C1200.24 -43.989 1199.08 -34.5 1199.61 -24.9288C1200.14 -15.3577 1215.54 -8.09577 1221.7 -8.80264C1225.13 -9.19538 1237.1 -10.3077 1246.13 -22.5492C1253.35 -32.3408 1258.69 -49.2528 1256.26 -78.6123M1286.64 -9.22844C1292.23 1.1715 1308.58 16.918 1329.23 -3.29569M1400.42 9.21046C1406.02 19.6104 1422.88 35.9249 1442.77 19.9006M1358.32 60.2274L1361.27 58.5924C1367.93 54.9057 1379.45 50.5607 1375.49 44.064V44.064C1374.12 41.8355 1372.1 41.4119 1369.51 41.0356C1365.05 40.3859 1359.05 45.949 1359.05 45.949C1359.05 45.949 1353.5 39.4196 1348.57 37.9133C1346.88 37.3997 1344.87 38.2094 1343.6 38.8846C1342.74 39.3385 1342.36 39.4681 1341.95 40.3414V40.3414C1339.65 45.175 1344.74 50.1213 1349.03 53.3168L1358.32 60.2274ZM1358.32 60.2274L1353.11 95.4096M1353.11 95.4096C1348.44 95.7385 1336.27 93.1157 1324.96 79.993M1353.11 95.4096C1357.96 95.9988 1368.51 95.1077 1371.93 86.8297" stroke="#ECF0F1" stroke-width="3" stroke-linecap="round" stroke-linejoin="round"/>
<path d="M-72.8879 649.63C-43.1346 644.603 33.6697 647.614 79.607 674.527M79.607 674.527C84.5284 677.41 89.2208 680.625 93.6153 684.205L79.607 674.527ZM79.607 674.527C88.597 663.652 110.265 644.19 125.018 653.345C143.459 664.79 154.092 677.991 158.653 698.044C163.215 718.096 166.363 730.669 165.41 740.207C164.458 749.745 153.964 756.287 147.837 755.309C144.433 754.766 132.52 753.126 124.04 740.499M116.394 684.044C112.672 713.268 117.258 730.398 124.04 740.499M124.04 740.499C124.862 765.684 117.359 820.884 80.775 840.205C35.0452 864.357 7.8328 862.502 -17.6942 858.601C-38.527 855.418 -83.7395 846.471 -106.785 808.847C-129.83 771.224 -123.771 714.332 -118.772 699.999M-63.3762 648.444C-72.5187 637.697 -94.9588 605.531 -120.978 612.865C-141.862 618.752 -144.64 639.716 -153.98 658.033C-165.825 681.263 -166.438 690.804 -165.351 700.328C-164.263 709.852 -148.47 716.205 -142.357 715.141C-138.961 714.55 -127.073 712.743 -118.772 699.997C-112.132 689.801 -107.789 672.607 -111.923 643.439M-77.5557 710.938C-71.3648 720.994 -54.1247 735.763 -34.6914 714.382M37.1074 722.725C43.2983 732.781 61.0863 748.087 80.0046 730.933M-1.95627 776.105L0.897329 774.301C7.33192 770.233 18.5823 765.225 14.2429 758.97V758.97C12.7545 756.825 10.7091 756.519 8.10408 756.294C3.60724 755.906 -2.05706 761.808 -2.05706 761.808C-2.05706 761.808 -7.97851 755.613 -12.9893 754.396C-14.698 753.981 -16.6646 754.907 -17.8937 755.655C-18.7198 756.158 -19.0901 756.309 -19.454 757.205V757.205C-21.4686 762.164 -16.1019 766.806 -11.629 769.747L-1.95627 776.105ZM-1.95627 776.105L-5.10654 811.531M-5.10654 811.531C-9.74898 812.131 -22.0478 810.22 -34.1035 797.778M-5.10654 811.531C-0.231043 811.837 10.253 810.333 13.1854 801.87" stroke="#ECF0F1" stroke-width="3" stroke-linecap="round" stroke-linejoin="round"/>
<path d="M1053.64 291.636C1077.74 309.789 1128.35 367.637 1140.39 419.5M1140.39 419.5C1141.68 425.056 1142.57 430.674 1142.99 436.326L1140.39 419.5ZM1140.39 419.5C1154.47 418.553 1183.49 420.911 1186.99 437.919C1191.35 459.178 1189.07 475.976 1177.65 493.073C1166.22 510.171 1159.25 521.1 1151.67 526.965C1144.09 532.83 1132.12 529.706 1128.62 524.584C1126.68 521.738 1119.68 511.96 1123.02 497.121M1158.76 452.759C1134.98 470.145 1125.69 485.251 1123.02 497.121M1123.02 497.121C1105.29 515.03 1060.05 547.528 1020.87 534.241C971.891 517.633 954.531 496.595 939.816 475.374C927.806 458.056 903.223 419.071 914.705 376.47C926.187 333.87 971.67 299.161 985.515 292.939M1061.04 297.729C1062.56 283.701 1070.49 245.292 1047.28 231.437C1028.65 220.317 1011.51 232.711 991.79 238.52C966.777 245.887 959.426 252 953.257 259.337C947.088 266.674 953.33 282.511 958.305 286.219C961.069 288.279 970.554 295.671 985.517 292.937C997.486 290.75 1012.96 282.085 1031.3 259.031M1005.9 330.391C1002.86 341.801 1003.98 364.474 1032.87 363.889M1076.17 421.768C1073.12 433.177 1074.23 456.617 1099.7 458.564M1010.55 430.093L1013.82 430.926C1021.2 432.802 1032.57 437.53 1034.13 430.079V430.079C1034.66 427.523 1033.48 425.828 1031.85 423.781C1029.04 420.248 1020.86 420.192 1020.86 420.192C1020.86 420.192 1021.29 411.633 1018.73 407.157C1017.86 405.631 1015.83 404.839 1014.44 404.461C1013.51 404.206 1013.15 404.042 1012.24 404.393V404.393C1007.26 406.339 1007.58 413.428 1008.52 418.697L1010.55 430.093ZM1010.55 430.093L982.654 452.158M982.654 452.158C979.027 449.199 971.959 438.954 972.708 421.645M982.654 452.158C985.783 455.909 994.082 462.49 1002.24 458.802" stroke="#ECF0F1" stroke-width="3" stroke-linecap="round" stroke-linejoin="round"/>
<path d="M1797.18 187.489C1807.28 215.924 1817.6 292.091 1799.04 341.992M1799.04 341.992C1797.05 347.338 1794.69 352.516 1791.93 357.463L1799.04 341.992ZM1799.04 341.992C1811.3 348.965 1834.22 366.94 1827.76 383.053C1819.67 403.196 1808.51 415.953 1789.55 423.914C1770.59 431.876 1758.75 437.152 1749.19 437.864C1739.63 438.576 1731.37 429.372 1731.28 423.168C1731.22 419.721 1730.78 407.704 1741.75 397.168M1796.03 379.871C1766.6 381.26 1750.52 388.74 1741.75 397.168M1741.75 397.168C1717.08 402.334 1661.42 404.494 1636.06 371.804C1604.36 330.942 1601.48 303.819 1600.91 278.002C1600.44 256.933 1601.43 210.855 1634.5 181.648C1667.57 152.441 1724.65 148.566 1739.63 151.01M1799.99 196.652C1809 185.788 1836.79 158.122 1825.07 133.763C1815.66 114.213 1794.53 115.103 1774.87 109.073C1749.94 101.426 1740.44 102.473 1731.25 105.191C1722.06 107.91 1718.53 124.564 1720.64 130.4C1721.81 133.643 1725.64 145.04 1739.63 151.01C1750.82 155.786 1768.51 157.089 1796.52 147.971M1735.99 193.498C1727.15 201.335 1715.59 220.87 1740.01 236.312M1744.21 308.471C1735.38 316.309 1723.38 336.476 1743.55 352.141M1684.88 279.231L1687.15 281.73C1692.27 287.364 1699.15 297.578 1704.56 292.222V292.222C1706.42 290.385 1706.36 288.317 1706.13 285.713C1705.74 281.216 1698.94 276.659 1698.94 276.659C1698.94 276.659 1704.02 269.755 1704.35 264.609C1704.47 262.854 1703.22 261.077 1702.27 259.996C1701.63 259.27 1701.41 258.931 1700.47 258.728V258.728C1695.24 257.601 1691.59 263.69 1689.47 268.604L1684.88 279.231ZM1684.88 279.231L1649.44 282.257M1649.44 282.257C1648.05 277.788 1647.8 265.345 1657.97 251.318M1649.44 282.257C1649.99 287.112 1653.28 297.178 1662.12 298.602" stroke="#ECF0F1" stroke-width="3" stroke-linecap="round" stroke-linejoin="round"/>
<path d="M1396.62 656.775C1421.64 639.907 1492.83 610.927 1545.78 616.463M1545.78 616.463C1551.46 617.056 1557.06 618.046 1562.54 619.491L1545.78 616.463ZM1545.78 616.463C1549.48 602.846 1561.18 576.172 1578.39 578.416C1599.91 581.222 1615.05 588.853 1627.49 605.231C1639.92 621.609 1647.98 631.759 1651.06 640.839C1654.13 649.919 1647.27 660.211 1641.29 661.851C1637.96 662.762 1626.44 666.19 1613.5 658.192M1583.22 609.936C1591.9 638.088 1603.15 651.795 1613.5 658.192M1613.5 658.192C1624.65 680.789 1640.62 734.16 1615.28 766.866C1583.61 807.75 1558.06 817.3 1533.2 824.291C1512.91 829.996 1468.04 840.523 1431.51 815.777C1394.99 791.031 1377.01 736.716 1375.64 721.599M1404.79 651.766C1392.03 645.755 1358.31 625.729 1337.64 643.156C1321.05 657.143 1327.18 677.383 1326.24 697.921C1325.05 723.97 1328.43 732.912 1333.35 741.136C1338.28 749.361 1355.29 748.624 1360.41 745.13C1363.26 743.189 1373.34 736.633 1375.64 721.596C1377.47 709.569 1374.33 692.116 1358.51 667.259M1417.69 714.537C1427.48 721.138 1449.29 727.467 1458.15 699.969M1526.99 677.911C1536.78 684.513 1559.3 691.105 1569.44 667.668M1513.46 742.66L1515.31 739.839C1519.49 733.476 1527.67 724.268 1521.13 720.364V720.364C1518.89 719.025 1516.9 719.592 1514.44 720.463C1510.18 721.966 1507.46 729.682 1507.46 729.682C1507.46 729.682 1499.51 726.485 1494.44 727.447C1492.72 727.775 1491.31 729.43 1490.5 730.619C1489.95 731.418 1489.68 731.709 1489.72 732.675V732.675C1489.93 738.023 1496.74 740.034 1502.02 740.865L1513.46 742.66ZM1513.46 742.66L1525.22 776.224M1525.22 776.224C1521.24 778.688 1509.25 782.028 1493.13 775.676M1525.22 776.224C1529.79 774.489 1538.72 768.789 1537.89 759.871" stroke="#ECF0F1" stroke-width="3" stroke-linecap="round" stroke-linejoin="round"/>
<path d="M1696.55 1010.37C1721.57 993.507 1792.76 964.527 1845.71 970.063M1845.71 970.063C1851.39 970.656 1856.99 971.646 1862.47 973.091L1845.71 970.063ZM1845.71 970.063C1849.41 956.445 1861.1 929.772 1878.32 932.016C1899.84 934.822 1914.98 942.453 1927.41 958.831C1939.85 975.209 1947.91 985.359 1950.98 994.439C1954.06 1003.52 1947.2 1013.81 1941.22 1015.45C1937.89 1016.36 1926.37 1019.79 1913.43 1011.79M1883.15 963.536C1891.83 991.688 1903.08 1005.39 1913.43 1011.79M1913.43 1011.79C1924.58 1034.39 1940.54 1087.76 1915.21 1120.47C1883.54 1161.35 1857.99 1170.9 1833.13 1177.89C1812.84 1183.6 1767.97 1194.12 1731.44 1169.38C1694.91 1144.63 1676.93 1090.32 1675.57 1075.2M1704.72 1005.37C1691.96 999.354 1658.24 979.329 1637.57 996.756C1620.98 1010.74 1627.11 1030.98 1626.17 1051.52C1624.98 1077.57 1628.36 1086.51 1633.28 1094.74C1638.21 1102.96 1655.21 1102.22 1660.34 1098.73C1663.19 1096.79 1673.27 1090.23 1675.57 1075.2C1677.4 1063.17 1674.26 1045.72 1658.44 1020.86M1717.62 1068.14C1727.41 1074.74 1749.21 1081.07 1758.08 1053.57M1826.92 1031.51C1836.71 1038.11 1859.23 1044.7 1869.37 1021.27M1813.39 1096.26L1815.24 1093.44C1819.42 1087.08 1827.6 1077.87 1821.06 1073.96V1073.96C1818.82 1072.62 1816.83 1073.19 1814.37 1074.06C1810.11 1075.57 1807.39 1083.28 1807.39 1083.28C1807.39 1083.28 1799.44 1080.09 1794.37 1081.05C1792.65 1081.37 1791.24 1083.03 1790.43 1084.22C1789.88 1085.02 1789.61 1085.31 1789.65 1086.27V1086.27C1789.86 1091.62 1796.66 1093.63 1801.95 1094.46L1813.39 1096.26ZM1813.39 1096.26L1825.15 1129.82M1825.15 1129.82C1821.17 1132.29 1809.18 1135.63 1793.06 1129.28M1825.15 1129.82C1829.72 1128.09 1838.64 1122.39 1837.82 1113.47" stroke="#ECF0F1" stroke-width="3" stroke-linecap="round" stroke-linejoin="round"/>
<path d="M221.55 966.374C246.571 949.507 317.761 920.527 370.713 926.063M370.713 926.063C376.386 926.656 381.987 927.646 387.468 929.091L370.713 926.063ZM370.713 926.063C374.409 912.445 386.104 885.772 403.321 888.016C424.842 890.822 439.978 898.453 452.415 914.831C464.851 931.209 472.912 941.359 475.984 950.439C479.056 959.519 472.201 969.811 466.217 971.451C462.892 972.362 451.366 975.79 438.428 967.792M408.147 919.536C416.827 947.688 428.079 961.394 438.428 967.792M438.428 967.792C449.578 990.389 465.545 1043.76 440.208 1076.47C408.536 1117.35 382.987 1126.9 358.128 1133.89C337.841 1139.6 292.97 1150.12 256.442 1125.38C219.915 1100.63 201.935 1046.32 200.567 1031.2M229.723 961.366C216.958 955.354 183.236 935.329 162.569 952.756C145.981 966.742 152.11 986.982 151.169 1007.52C149.977 1033.57 153.359 1042.51 158.283 1050.74C163.207 1058.96 180.215 1058.22 185.342 1054.73C188.19 1052.79 198.271 1046.23 200.566 1031.2C202.402 1019.17 199.256 1001.72 183.444 976.859M242.621 1024.14C252.413 1030.74 274.214 1037.07 283.081 1009.57M351.915 987.511C361.707 994.113 384.229 1000.7 394.373 977.268M338.387 1052.26L340.241 1049.44C344.421 1043.08 352.598 1033.87 346.063 1029.96V1029.96C343.821 1028.62 341.832 1029.19 339.367 1030.06C335.111 1031.57 332.391 1039.28 332.391 1039.28C332.391 1039.28 324.439 1036.09 319.373 1037.05C317.645 1037.37 316.237 1039.03 315.426 1040.22C314.882 1041.02 314.607 1041.31 314.646 1042.27V1042.27C314.859 1047.62 321.664 1049.63 326.952 1050.46L338.387 1052.26ZM338.387 1052.26L350.15 1085.82M350.15 1085.82C346.17 1088.29 334.181 1091.63 318.062 1085.28M350.15 1085.82C354.717 1084.09 363.644 1078.39 362.819 1069.47" stroke="#ECF0F1" stroke-width="3" stroke-linecap="round" stroke-linejoin="round"/>
</g>
<defs>
<clipPath id="clip0_9_86">
<rect width="1920" height="1080" fill="white"/>
</clipPath>
</defs>
</svg>
