<svg width="362" height="87" viewBox="0 0 362 87" fill="none" xmlns="http://www.w3.org/2000/svg">
<path d="M31.0603 35.8478V52.3478M31.0603 81.8478V52.3478M31.0603 52.3478C29.6156 39.3478 54.5602 27.8478 60.0603 52.3478C63.3154 66.8478 34.0603 79.3478 31.0603 52.3478ZM74.0603 52.3478H106.06C105.727 46.8478 101.96 35.8478 89.5603 35.8478C77.1603 35.8478 74.0603 46.8478 74.0603 52.3478ZM74.0603 52.3478C73.727 57.5144 76.3603 68.0478 89.5603 68.8478C91.727 69.0144 97.5602 69.5478 101.56 64.3478M122.06 23.8478V50.8928C122.06 58.8417 122.668 71.0968 130.429 69.3794C131.912 69.0512 133.616 68.262 135.56 66.8478M134.06 36.8478H112.06M178.06 68.8478V57.0978M178.06 57.0978V57.0978C178.06 49.4872 175.882 41.1617 168.857 38.2342C165.978 37.0342 162.738 36.5273 159.367 37.3783C150.63 39.5839 146.223 50.344 149.181 58.8553C150.808 63.5369 154.306 67.6558 161.06 68.8478C165.894 69.3478 176.06 67.6978 178.06 57.0978ZM218.56 42.3478C214.343 37.6939 204.465 31.9486 195.107 42.2543C192.065 45.6041 191.06 50.2347 191.06 54.7594V54.7594C191.06 59.0795 191.946 63.5801 195.156 66.4716C200.764 71.5235 209.652 73.5988 218.56 62.8478M231.56 35.8478V57.0978C231.56 64.3478 242.96 76.3478 256.56 64.3478V64.3478C259.778 60.8087 261.56 56.1976 261.56 51.4147V35.8478V68.8478M277.56 23.8478V70.3478M323.06 68.8478V57.0978M323.06 57.0978V57.0978C323.06 49.4872 320.882 41.1617 313.857 38.2342C310.978 37.0342 307.738 36.5273 304.367 37.3783C295.63 39.5839 291.223 50.344 294.181 58.8553C295.808 63.5369 299.306 67.6558 306.06 68.8478C310.894 69.3478 321.06 67.6978 323.06 57.0978ZM357.06 39.8478C351.06 34.3478 339.06 36.8478 339.06 45.3478V35.8478V68.8478" stroke="black" stroke-width="9" stroke-linecap="round" stroke-linejoin="round"/>
<path d="M63.7009 13.9565C57.4528 15.0123 57.6443 20.1206 58.7278 23.1648C58.8747 23.5774 59.3003 23.8179 59.7306 23.7363C65.2781 22.6848 65.4713 17.6694 64.7217 14.6184C64.6097 14.1626 64.1637 13.8783 63.7009 13.9565Z" stroke="#FFAD1C" stroke-width="9" stroke-linecap="round" stroke-linejoin="round"/>
<path d="M45.8585 5.53651C40.2902 8.56095 42.1276 13.3312 44.1395 15.8597C44.4123 16.2024 44.8928 16.292 45.2735 16.0753C50.1804 13.282 48.737 8.47486 47.0388 5.83166C46.7851 5.43678 46.271 5.31248 45.8585 5.53651Z" stroke="#FFAD1C" stroke-width="9" stroke-linecap="round" stroke-linejoin="round"/>
<path d="M20.4163 9.98384C17.5193 15.6195 21.7246 18.5258 24.8113 19.4816C25.2298 19.6111 25.6772 19.4144 25.8697 19.0209C28.3504 13.9488 24.4499 10.7901 21.5578 9.56283C21.1257 9.37948 20.6309 9.56639 20.4163 9.98384Z" stroke="#FFAD1C" stroke-width="9" stroke-linecap="round" stroke-linejoin="round"/>
<path d="M4.72818 25.1889C5.08027 31.5157 10.178 31.8953 13.3241 31.1582C13.7506 31.0582 14.0371 30.6622 14.004 30.2254C13.5779 24.5952 8.61541 23.8437 5.49981 24.2482C5.03434 24.3087 4.7021 24.7202 4.72818 25.1889Z" stroke="#FFAD1C" stroke-width="9" stroke-linecap="round" stroke-linejoin="round"/>
</svg>
